<?xml version="1.0" encoding="UTF-8" standalone="no"?>
<svg
   xmlns:dc="http://purl.org/dc/elements/1.1/"
   xmlns:cc="http://creativecommons.org/ns#"
   xmlns:rdf="http://www.w3.org/1999/02/22-rdf-syntax-ns#"
   xmlns:svg="http://www.w3.org/2000/svg"
   xmlns="http://www.w3.org/2000/svg"
   xmlns:sodipodi="http://sodipodi.sourceforge.net/DTD/sodipodi-0.dtd"
   xmlns:inkscape="http://www.inkscape.org/namespaces/inkscape"
   version="1.1"
   x="0px"
   y="0px"
   viewBox="0 0 90 90"
   enable-background="new 0 0 100 100"
   xml:space="preserve"
   id="svg2"
   inkscape:version="0.91 r13725"
   sodipodi:docname="calendar.svg"
   width="90"
   height="90"><metadata
     id="metadata38"><rdf:RDF><cc:Work
         rdf:about=""><dc:format>image/svg+xml</dc:format><dc:type
           rdf:resource="http://purl.org/dc/dcmitype/StillImage" /><dc:title></dc:title></cc:Work></rdf:RDF></metadata><defs
     id="defs36" /><sodipodi:namedview
     pagecolor="#ffffff"
     bordercolor="#666666"
     borderopacity="1"
     objecttolerance="10"
     gridtolerance="10"
     guidetolerance="10"
     inkscape:pageopacity="0"
     inkscape:pageshadow="2"
     inkscape:window-width="1440"
     inkscape:window-height="851"
     id="namedview34"
     showgrid="false"
     fit-margin-top="0"
     fit-margin-left="0"
     fit-margin-right="0"
     fit-margin-bottom="0"
     inkscape:zoom="1.888"
     inkscape:cx="44.742"
     inkscape:cy="32.5"
     inkscape:window-x="0"
     inkscape:window-y="0"
     inkscape:window-maximized="1"
     inkscape:current-layer="svg2" /><rect
     x="30.231499"
     y="37.397999"
     width="8.6689997"
     height="8.6660004"
     id="rect4"
     style="fill:#ffffff;stroke:none" /><rect
     x="30.231499"
     y="50.716999"
     width="8.6689997"
     height="8.6719999"
     id="rect6"
     style="fill:#ffffff;stroke:none" /><rect
     x="30.231499"
     y="64.042"
     width="8.6689997"
     height="8.6719999"
     id="rect8"
     style="fill:#ffffff;stroke:none" /><rect
     x="14.666499"
     y="50.716999"
     width="8.6680002"
     height="8.6719999"
     id="rect10"
     style="fill:#ffffff;stroke:none" /><rect
     x="14.666499"
     y="64.042"
     width="8.6680002"
     height="8.6719999"
     id="rect12"
     style="fill:#ffffff;stroke:none" /><path
     d="m 26.9815,11.959 c 0,3.413 -2.766,6.179 -6.181,6.179 l 0,0 c -3.413,0 -6.181,-2.766 -6.181,-6.179 l 0,-5.778 C 14.6195,2.768 17.3875,0 20.8005,0 l 0,0 c 3.415,0 6.181,2.768 6.181,6.181 l 0,5.778 z"
     id="path14"
     inkscape:connector-curvature="0"
     style="fill:#ffffff;stroke:none" /><path
     d="m 69.1905,11.959 c 0,3.413 -2.76,6.179 -6.178,6.179 l 0,0 c -3.412,0 -6.184,-2.766 -6.184,-6.179 l 0,-5.778 C 56.8295,2.768 59.6015,0 63.0135,0 l 0,0 c 3.418,0 6.178,2.768 6.178,6.181 l 0,5.778 z"
     id="path16"
     inkscape:connector-curvature="0"
     style="fill:#ffffff;stroke:none" /><path
     d="m 66.6425,90 c -12.733,0 -23.101,-10.383 -23.101,-23.143 0,-12.772 10.369,-23.144 23.101,-23.144 12.732,0 23.1,10.372 23.1,23.144 C 89.7415,79.617 79.3745,90 66.6425,90 Z m 0,-40.537 c -9.566,0 -17.35,7.803 -17.35,17.395 0,9.581 7.783,17.385 17.35,17.385 9.567,0 17.346,-7.804 17.346,-17.385 -0.001,-9.592 -7.78,-17.395 -17.346,-17.395 z"
     id="path18"
     inkscape:connector-curvature="0"
     style="fill:#ffffff;stroke:none" /><path
     d="m 66.8645,69.504 c -0.953,0.483 -2.104,0.098 -2.582,-0.849 l 0,0 c -0.49,-0.959 -0.109,-2.116 0.844,-2.599 l 12.445,-6.272 c 0.947,-0.485 2.113,-0.1 2.588,0.85 l 0,0 c 0.484,0.958 0.109,2.104 -0.854,2.589 l -12.441,6.281 z"
     id="path20"
     inkscape:connector-curvature="0"
     style="fill:#ffffff;stroke:none" /><path
     d="m 63.2945,67.41 c 0.127,-1.649 1.564,-2.875 3.211,-2.746 1.648,0.128 2.869,1.569 2.74,3.21 -0.125,1.64 -1.561,2.875 -3.211,2.746 -1.64,-0.128 -2.863,-1.569 -2.74,-3.21 z"
     id="path22"
     inkscape:connector-curvature="0"
     style="fill:#ffffff;stroke:none" /><path
     d="m 66.6425,40.305 c 1.15,0 2.277,0.099 3.389,0.24 l 0,-3.147 -8.668,0 0,3.437 c 1.706,-0.345 3.472,-0.53 5.279,-0.53 z"
     id="path24"
     inkscape:connector-curvature="0"
     style="fill:#ffffff;stroke:none" /><path
     d="m 54.4685,43.292 0,-5.894 -8.672,0 0,8.666 4.403,0 c 1.325,-1.055 2.753,-1.983 4.269,-2.772 z"
     id="path26"
     inkscape:connector-curvature="0"
     style="fill:#ffffff;stroke:none" /><path
     d="m 44.4895,81.396 c -0.002,-0.002 -0.004,-0.007 -0.007,-0.012 -0.54,-0.825 -1.025,-1.688 -1.473,-2.574 l -36.421,0 0,-47.51 70.627,0 0,11.218 c 0.002,0 0.002,10e-4 0.004,0.002 1.047,0.458 2.047,0.995 3.018,1.579 0.178,0.106 0.355,0.212 0.531,0.323 0.969,0.615 1.91,1.272 2.789,2.004 l 0,-35.672 -11.087,0 0,1.205 c 0,5.21 -4.242,9.456 -9.457,9.456 -5.215,0 -9.453,-4.245 -9.453,-9.456 l 0,-1.205 -23.307,0 0,1.205 c 0,5.21 -4.243,9.456 -9.453,9.456 -5.218,0 -9.453,-4.245 -9.453,-9.456 l 0,-1.205 -11.09,0 0,73.032 45.98,0 c -0.002,0 -0.002,-0.003 -0.004,-0.003 -0.626,-0.759 -1.201,-1.559 -1.744,-2.387 z"
     id="path28"
     inkscape:connector-curvature="0"
     style="fill:#ffffff;stroke:none" /></svg>