<?xml version="1.0" encoding="UTF-8" standalone="no"?>
<svg
   xmlns:dc="http://purl.org/dc/elements/1.1/"
   xmlns:cc="http://creativecommons.org/ns#"
   xmlns:rdf="http://www.w3.org/1999/02/22-rdf-syntax-ns#"
   xmlns:svg="http://www.w3.org/2000/svg"
   xmlns="http://www.w3.org/2000/svg"
   height="90"
   width="90"
   id="svg2"
   xml:space="preserve"
   enable-background="new 0 0 100 100"
   viewBox="0 0 90 90"
   y="0px"
   x="0px"
   version="1.1"><metadata
     id="metadata32"><rdf:RDF><cc:Work
         rdf:about=""><dc:format>image/svg+xml</dc:format><dc:type
           rdf:resource="http://purl.org/dc/dcmitype/StillImage" /><dc:title></dc:title></cc:Work></rdf:RDF></metadata><defs
     id="defs30" /><path
     style="fill:#ffffff;stroke:none"
     id="circle3640"
     d="M 16.847656 12.835938 A 3.9762826 3.9762826 0 0 0 12.871094 16.810547 A 3.9762826 3.9762826 0 0 0 15.275391 20.462891 C 16.497177 18.311842 18.143382 16.317674 20.203125 14.679688 A 3.9762826 3.9762826 0 0 0 16.847656 12.835938 z " /><path
     style="fill:#ffffff;stroke:none"
     d="m 18.644676,7.059243 c 0,1.100185 -0.892582,1.9905466 -1.992027,1.9905466 l 0,0 c -1.099445,0 -1.990917,-0.8907317 -1.990917,-1.9905466 l 0,-5.0686964 C 14.661732,0.89110173 15.553204,-2.6729999e-8 16.652649,-2.6729999e-8 l 0,0 c 1.099445,0 1.992027,0.891471816729999 1.992027,1.990546626729999 l 0,5.0686964 z"
     id="path3624" /><path
     style="fill:#ffffff;stroke:none"
     d="m 11.277914,8.461396 c 0.777123,0.7778638 0.776383,2.037914 0,2.813558 l 0,0 c -0.777864,0.778603 -2.0379145,0.778603 -2.8157783,0 l -3.58328,-3.5825403 c -0.7778638,-0.7778637 -0.7778638,-2.0371741 0,-2.8157779 l 0,0 c 0.7771236,-0.7763835 2.036434,-0.7778638 2.8142977,0 L 11.277914,8.461396 Z"
     id="path3626" /><path
     style="fill:#ffffff;stroke:none"
     d="m 7.0596126,14.660992 c 1.100185,0 1.9905467,0.890732 1.9905467,1.990917 l 0,0 c 0,1.097965 -0.8907317,1.989807 -1.9905467,1.989807 l -5.0686963,0 C 0.89073125,18.641716 -4.5e-7,17.749874 -4.5e-7,16.650429 l 0,0 c 0.00111018,-1.098705 0.8907317,-1.989437 1.99054665,-1.989437 l 5.0690664,0 z"
     id="path3628" /><path
     style="fill:#ffffff;stroke:none"
     d="m 8.4621357,22.025904 c 0.7778638,-0.777864 2.0364343,-0.777864 2.8157783,0.0015 l 0,0 c 0.776383,0.776384 0.776383,2.037174 -0.0022,2.814668 l -3.5825396,3.58439 c -0.7778637,0.776384 -2.0393944,0.776384 -2.8172582,0 l 0,0 c -0.7749033,-0.777864 -0.7763835,-2.037174 0.00148,-2.814668 l 3.5847602,-3.58587 z"
     id="path3630" /><path
     style="fill:#ffffff;stroke:none"
     d="m 24.843532,11.274954 c -0.777864,0.778603 -2.038655,0.778603 -2.816148,0 l 0,0 C 21.251,10.50079 21.251,9.2377795 22.028864,8.4591757 l 3.58402,-3.5825399 c 0.775273,-0.7763835 2.040135,-0.7763835 2.817628,0.00148 l 0,0 c 0.773423,0.7778637 0.773423,2.0353238 -0.003,2.8142977 l -3.58402,3.5825403 z"
     id="path3638" /><path
     style="fill:#ffffff;stroke:none"
     d="m 18.721535,78.076 -1.947,0.299 c -0.017,0.004 -0.026,0.012 -0.042,0.016 L 14.838535,77 c 0.06,-0.158 0.098,-0.324 0.098,-0.502 0,-0.178 -0.038,-0.344 -0.098,-0.502 l 1.894,-1.398 c 0.015,0.008 0.025,0.016 0.042,0.016 l 1.947,0.303 c 0.191,0.029 0.371,-0.105 0.401,-0.295 0.028,-0.197 -0.104,-0.371 -0.292,-0.4 l -1.306,-0.197 0.601,-0.445 c 0.18,0.053 0.378,0.035 0.54,-0.086 0.278,-0.205 0.337,-0.594 0.132,-0.873 -0.201,-0.275 -0.593,-0.336 -0.871,-0.133 -0.162,0.121 -0.242,0.307 -0.242,0.492 l -0.593,0.434 0.197,-1.283 c 0.029,-0.193 -0.1,-0.375 -0.295,-0.404 -0.192,-0.027 -0.366,0.105 -0.399,0.295 l -0.299,1.951 c 0,0.008 0.003,0.016 0.003,0.023 l -1.905,1.4 c -0.145,-0.109 -0.309,-0.191 -0.49,-0.24 l 0,-2.354 c 0.014,-0.008 0.027,-0.016 0.038,-0.023 l 1.392,-1.396 c 0.138,-0.137 0.138,-0.359 0,-0.494 -0.136,-0.137 -0.357,-0.137 -0.494,0 l -0.936,0.936 0,-0.748 c 0.148,-0.117 0.253,-0.287 0.253,-0.49 0,-0.34 -0.28,-0.623 -0.624,-0.623 -0.344,0 -0.624,0.283 -0.624,0.623 0,0.203 0.103,0.373 0.252,0.49 l 0,0.729 -0.922,-0.92 c -0.136,-0.137 -0.358,-0.137 -0.495,0 -0.138,0.135 -0.138,0.357 0,0.494 l 1.396,1.396 c 0.005,0.004 0.013,0.008 0.021,0.016 l 0,2.367 c -0.182,0.051 -0.344,0.129 -0.483,0.246 l -1.899,-1.389 c 0,-0.02 0.006,-0.031 0,-0.047 l -0.294,-1.951 c -0.032,-0.189 -0.21,-0.322 -0.404,-0.295 -0.189,0.029 -0.321,0.211 -0.292,0.404 l 0.202,1.307 -0.605,-0.445 c -0.003,-0.189 -0.08,-0.371 -0.246,-0.492 -0.275,-0.199 -0.663,-0.143 -0.868,0.137 -0.207,0.275 -0.146,0.668 0.132,0.873 0.163,0.115 0.362,0.135 0.539,0.082 l 0.593,0.434 -1.286,0.197 c -0.19,0.029 -0.323,0.203 -0.294,0.4 0.029,0.189 0.209,0.324 0.401,0.295 l 1.949,-0.303 c 0.008,0 0.017,-0.008 0.025,-0.008 l 1.905,1.402 c -0.057,0.154 -0.093,0.316 -0.093,0.49 0,0.17 0.036,0.332 0.093,0.482 l -1.905,1.402 c -0.008,0 -0.017,-0.004 -0.025,-0.008 l -1.949,-0.299 c -0.191,-0.029 -0.372,0.102 -0.401,0.295 -0.028,0.193 0.104,0.367 0.294,0.396 l 1.286,0.201 -0.593,0.43 c -0.177,-0.049 -0.376,-0.031 -0.539,0.086 -0.278,0.209 -0.339,0.594 -0.132,0.877 0.205,0.271 0.592,0.332 0.868,0.129 0.166,-0.117 0.243,-0.299 0.246,-0.492 l 0.605,-0.441 -0.202,1.307 c -0.029,0.189 0.103,0.371 0.292,0.4 0.194,0.027 0.372,-0.105 0.404,-0.299 l 0.294,-1.943 c 0.006,-0.016 0,-0.031 0,-0.043 l 1.897,-1.393 c 0.14,0.113 0.304,0.191 0.486,0.244 l 0,2.369 c -0.008,0.008 -0.017,0.008 -0.021,0.016 l -1.396,1.396 c -0.138,0.137 -0.138,0.355 0,0.49 0.136,0.141 0.359,0.141 0.495,0 l 0.922,-0.916 0,0.732 c -0.149,0.117 -0.252,0.283 -0.252,0.486 0,0.344 0.28,0.623 0.624,0.623 0.344,0 0.624,-0.279 0.624,-0.623 0,-0.203 -0.105,-0.369 -0.253,-0.486 l 0,-0.748 0.936,0.932 c 0.135,0.141 0.357,0.141 0.494,0 0.138,-0.135 0.138,-0.354 0,-0.49 l -1.392,-1.396 c -0.011,-0.008 -0.024,-0.016 -0.038,-0.023 l 0,-2.354 c 0.182,-0.053 0.346,-0.135 0.49,-0.244 l 1.905,1.4 c 0,0.012 -0.003,0.016 -0.003,0.027 l 0.299,1.947 c 0.033,0.189 0.208,0.322 0.399,0.295 0.195,-0.029 0.325,-0.211 0.295,-0.4 l -0.197,-1.283 0.593,0.438 c 0,0.182 0.08,0.367 0.242,0.484 0.278,0.207 0.669,0.143 0.871,-0.129 0.205,-0.283 0.146,-0.668 -0.132,-0.877 -0.162,-0.121 -0.36,-0.135 -0.54,-0.082 l -0.601,-0.443 1.306,-0.203 c 0.188,-0.029 0.321,-0.203 0.292,-0.396 -0.031,-0.192 -0.21,-0.322 -0.402,-0.293 z"
     id="path6" /><polygon
     style="fill:#ffffff;stroke:none"
     transform="translate(-4.999465,-2.094)"
     points="39.768,56.174 28.731,67.123 42.591,76.055 28.616,92.094 48.932,76.217 41.452,67.99 66.818,56.174 "
     id="polygon8" /><path
     style="fill:#ffffff;stroke:none"
     d="m 70.645535,61.082 c -0.193,-2.074 -2.354,-3.445 -2.896,-6.529 l -0.004,0 c -0.545,3.084 -2.707,4.455 -2.9,6.529 -0.174,1.918 1.262,3.266 2.896,3.264 1.634,-0.008 3.081,-1.346 2.904,-3.264 z"
     id="path10" /><path
     style="fill:#ffffff;stroke:none"
     d="m 75.094535,77.035 c -0.193,-2.078 -2.357,-3.445 -2.9,-6.531 l -0.004,0 c -0.545,3.086 -2.705,4.453 -2.896,6.531 -0.178,1.918 1.262,3.266 2.893,3.262 1.637,-0.004 3.084,-1.344 2.907,-3.262 z"
     id="path12" /><path
     style="fill:#ffffff;stroke:none"
     d="m 64.176535,71.773 c -0.213,-2.301 -2.613,-3.818 -3.219,-7.252 l -0.004,0 c -0.604,3.434 -3.002,4.951 -3.213,7.252 -0.201,2.131 1.396,3.633 3.213,3.625 1.813,-0.008 3.418,-1.494 3.223,-3.625 z"
     id="path14" /><path
     style="fill:#ffffff;stroke:none"
     d="m 81.822535,64.707 c -0.232,-2.557 -2.9,-4.24 -3.572,-8.039 l -0.004,0 c -0.668,3.799 -3.334,5.482 -3.568,8.039 -0.219,2.361 1.553,4.025 3.568,4.02 2.014,-0.009 3.793,-1.659 3.576,-4.02 z"
     id="path16" /><path
     style="fill:#ffffff;stroke:none"
     d="m 17.249535,56.613 -3.118,0.48 c -0.026,0 -0.042,0.012 -0.066,0.02 l -3.037,-2.229 c 0.098,-0.246 0.157,-0.518 0.157,-0.805 0,-0.279 -0.059,-0.551 -0.157,-0.805 l 1.831,-1.344 c -0.455,-0.158 -0.899,-0.326 -1.322,-0.506 l -1.223,0.895 c -0.231,-0.174 -0.495,-0.311 -0.784,-0.385 l 0,-1.557 c -0.417,-0.258 -0.814,-0.522 -1.19,-0.806 l 0,2.37 c -0.29,0.078 -0.549,0.215 -0.775,0.396 l -3.04,-2.23 c 0,-0.03 0.006,-0.049 0.001,-0.071 l -0.475,-3.124 c -0.048,-0.31 -0.334,-0.517 -0.642,-0.472 -0.307,0.045 -0.517,0.332 -0.47,0.642 l 0.321,2.089 -0.967,-0.706 c -0.005,-0.303 -0.13,-0.593 -0.391,-0.786 -0.441,-0.323 -1.065,-0.225 -1.392,0.217 -0.329,0.445 -0.231,1.068 0.212,1.394 0.26,0.192 0.582,0.227 0.866,0.14 l 0.948,0.694 -2.062,0.313 c -0.304,0.047 -0.516,0.334 -0.469,0.643 0.048,0.307 0.335,0.516 0.639,0.469 l 3.124,-0.477 c 0.015,0 0.027,-0.014 0.041,-0.018 l 3.05,2.248 c -0.09,0.24 -0.146,0.502 -0.146,0.777 0,0.275 0.056,0.537 0.146,0.781 l -3.05,2.244 c -0.013,-0.004 -0.025,-0.012 -0.041,-0.012 l -3.124,-0.48 c -0.304,-0.053 -0.591,0.168 -0.639,0.473 -0.047,0.307 0.166,0.594 0.469,0.635 l 2.062,0.316 -0.948,0.695 c -0.284,-0.078 -0.606,-0.049 -0.866,0.141 -0.444,0.324 -0.541,0.951 -0.212,1.396 0.327,0.441 0.951,0.537 1.394,0.211 0.261,-0.188 0.386,-0.482 0.391,-0.785 l 0.967,-0.709 -0.321,2.092 c -0.046,0.307 0.164,0.594 0.47,0.643 0.308,0.041 0.594,-0.17 0.642,-0.473 l 0.475,-3.119 c 0.005,-0.027 -10e-4,-0.049 -10e-4,-0.072 l 3.038,-2.232 c 0.226,0.182 0.487,0.318 0.777,0.396 l 0,3.793 c -0.011,0.012 -0.023,0.012 -0.034,0.021 l -2.234,2.236 c -0.221,0.219 -0.221,0.578 0,0.789 0.217,0.223 0.573,0.223 0.794,0 l 1.474,-1.469 0,1.174 c -0.238,0.182 -0.402,0.457 -0.402,0.779 0,0.555 0.447,0.996 1,0.996 0.55,0 0.995,-0.441 0.995,-0.996 0,-0.322 -0.161,-0.598 -0.403,-0.779 l 0,-1.197 1.5,1.492 c 0.214,0.223 0.573,0.223 0.792,0 0.221,-0.211 0.221,-0.57 0,-0.789 l -2.231,-2.236 c -0.017,-0.014 -0.039,-0.021 -0.06,-0.033 l 0,-3.773 c 0.289,-0.078 0.552,-0.211 0.784,-0.389 l 3.056,2.248 c 0,0.014 -0.005,0.021 -0.005,0.041 l 0.479,3.119 c 0.048,0.303 0.333,0.514 0.637,0.473 0.312,-0.049 0.521,-0.336 0.473,-0.643 l -0.315,-2.059 0.948,0.699 c 0.002,0.295 0.126,0.592 0.387,0.781 0.446,0.328 1.071,0.23 1.397,-0.207 0.327,-0.453 0.231,-1.068 -0.212,-1.402 -0.26,-0.195 -0.58,-0.223 -0.866,-0.135 l -0.966,-0.711 2.091,-0.324 c 0.306,-0.041 0.519,-0.328 0.471,-0.635 -0.047,-0.303 -0.334,-0.52 -0.643,-0.471 z"
     id="path18" /><path
     style="fill:#ffffff;stroke:none"
     d="m 72.830535,36.234 c -0.15,-2.174 -1.672,-7.008 -6.684,-10.163 -5.615,-3.528 -10.838,-3.669 -15.82,-2.083 -2.531,-6.481 -9.521,-12.598 -19.856,-11.251 -10.045,1.307 -15.556,9.93 -15.556,16.875 -5.957,1.658 -9.329,5.595 -9.329,10.904 0,5.393 5.289,10.567 15.264,10.534 9.972,-0.027 42.801,0.082 52.85,0 8.74,-0.072 11.262,-4.888 9.748,-9.424 -1.398,-4.195 -6.08,-6.452 -10.617,-5.392 z"
     id="path20" /><path
     style="fill:#ffffff;stroke:none"
     d="m 89.750535,23.344 c -0.842,-2.528 -3.664,-3.889 -6.4,-3.25 -0.092,-1.311 -1.01,-4.225 -4.031,-6.128 -3.387,-2.128 -6.533,-2.213 -9.539,-1.255 -1.525,-3.909 -5.744,-7.597 -11.975,-6.785 -5.424,0.705 -8.631,4.943 -9.246,8.831 1.668,1.593 3.008,3.375 3.996,5.16 1.453,-0.299 2.893,-0.451 4.297,-0.451 3.918,0 7.777,1.176 11.479,3.502 2.764,1.739 4.645,3.938 5.898,6.08 4.061,0 7.625,-0.004 9.645,-0.019 5.272,-0.044 6.79,-2.948 5.876,-5.685 z"
     id="path22" /></svg>