<?xml version="1.0" encoding="UTF-8" standalone="no"?>
<svg
   xmlns:dc="http://purl.org/dc/elements/1.1/"
   xmlns:cc="http://creativecommons.org/ns#"
   xmlns:rdf="http://www.w3.org/1999/02/22-rdf-syntax-ns#"
   xmlns:svg="http://www.w3.org/2000/svg"
   xmlns="http://www.w3.org/2000/svg"
   height="90"
   width="33.904999"
   id="svg34"
   xml:space="preserve"
   enable-background="new 0 0 100 100"
   viewBox="0 0 33.904999 90"
   y="0px"
   x="0px"
   version="1.1"><metadata
     id="metadata54"><rdf:RDF><cc:Work
         rdf:about=""><dc:format>image/svg+xml</dc:format><dc:type
           rdf:resource="http://purl.org/dc/dcmitype/StillImage" /><dc:title></dc:title></cc:Work></rdf:RDF></metadata><defs
     id="defs52" /><rect
     style="fill:#ffffff;stroke:none"
     id="rect36"
     height="1.548"
     width="5.5799999"
     y="17.525999"
     x="14.160999" /><rect
     style="fill:#ffffff;stroke:none"
     id="rect38"
     height="1.5549999"
     width="5.5799999"
     y="31.891998"
     x="14.160999" /><rect
     style="fill:#ffffff;stroke:none"
     id="rect40"
     height="1.552"
     width="5.5799999"
     y="46.264"
     x="14.160999" /><path
     style="fill:#ffffff;stroke:none"
     id="path42"
     d="m 27.501,59.792 0,-49.248 C 27.501,4.722 22.778,0 16.951,0 11.133,0 5.961,4.723 5.961,10.544 l 0,49.615 C 2.32,63.269 0,67.887 0,73.052 0,82.412 7.588,90 16.952,90 26.317,90 33.905,82.412 33.905,73.052 33.904,67.679 31.399,62.898 27.501,59.792 Z m -10.55,24.515 c -6.203,0 -11.235,-5.032 -11.235,-11.238 0,-4.164 2.292,-7.758 5.655,-9.7 l 0,-50.814 c 0,-3.038 2.545,-5.499 5.58,-5.499 3.035,0 5.589,2.46 5.589,5.499 l 0,50.816 c 3.361,1.943 5.648,5.536 5.648,9.697 0,6.206 -5.023,11.239 -11.237,11.239 z" /><path
     style="fill:#ffffff;stroke:none"
     id="path44"
     d="m 19.956,65.692 0,-10.946 -6.006,0 0,10.946 c -2.911,1.188 -4.968,4.038 -4.968,7.376 0,4.403 3.569,7.973 7.969,7.973 4.409,0 7.97,-3.569 7.97,-7.973 0,-3.338 -2.051,-6.188 -4.965,-7.376 z" /></svg>