<svg xmlns="http://www.w3.org/2000/svg" xmlns:xlink="http://www.w3.org/1999/xlink" version="1.1" x="0px" y="0px" viewBox="0 0 100 125" enable-background="new 0 0 100 100" xml:space="preserve"><g><path d="M23.721,80.17l-1.947,0.299c-0.017,0.004-0.026,0.012-0.042,0.016l-1.894-1.391c0.06-0.158,0.098-0.324,0.098-0.502   s-0.038-0.344-0.098-0.502l1.894-1.398c0.015,0.008,0.025,0.016,0.042,0.016l1.947,0.303c0.191,0.029,0.371-0.105,0.401-0.295   c0.028-0.197-0.104-0.371-0.292-0.4l-1.306-0.197l0.601-0.445c0.18,0.053,0.378,0.035,0.54-0.086   c0.278-0.205,0.337-0.594,0.132-0.873c-0.201-0.275-0.593-0.336-0.871-0.133c-0.162,0.121-0.242,0.307-0.242,0.492l-0.593,0.434   l0.197-1.283c0.029-0.193-0.1-0.375-0.295-0.404c-0.192-0.027-0.366,0.105-0.399,0.295l-0.299,1.951   c0,0.008,0.003,0.016,0.003,0.023l-1.905,1.4c-0.145-0.109-0.309-0.191-0.49-0.24v-2.354c0.014-0.008,0.027-0.016,0.038-0.023   l1.392-1.396c0.138-0.137,0.138-0.359,0-0.494c-0.136-0.137-0.357-0.137-0.494,0l-0.936,0.936v-0.748   c0.148-0.117,0.253-0.287,0.253-0.49c0-0.34-0.28-0.623-0.624-0.623c-0.344,0-0.624,0.283-0.624,0.623   c0,0.203,0.103,0.373,0.252,0.49V73.9l-0.922-0.92c-0.136-0.137-0.358-0.137-0.495,0c-0.138,0.135-0.138,0.357,0,0.494l1.396,1.396   c0.005,0.004,0.013,0.008,0.021,0.016v2.367c-0.182,0.051-0.344,0.129-0.483,0.246l-1.899-1.389c0-0.02,0.006-0.031,0-0.047   l-0.294-1.951c-0.032-0.189-0.21-0.322-0.404-0.295c-0.189,0.029-0.321,0.211-0.292,0.404l0.202,1.307l-0.605-0.445   c-0.003-0.189-0.08-0.371-0.246-0.492c-0.275-0.199-0.663-0.143-0.868,0.137c-0.207,0.275-0.146,0.668,0.132,0.873   c0.163,0.115,0.362,0.135,0.539,0.082l0.593,0.434l-1.286,0.197c-0.19,0.029-0.323,0.203-0.294,0.4   c0.029,0.189,0.209,0.324,0.401,0.295l1.949-0.303c0.008,0,0.017-0.008,0.025-0.008l1.905,1.402   c-0.057,0.154-0.093,0.316-0.093,0.49c0,0.17,0.036,0.332,0.093,0.482l-1.905,1.402c-0.008,0-0.017-0.004-0.025-0.008l-1.949-0.299   c-0.191-0.029-0.372,0.102-0.401,0.295c-0.028,0.193,0.104,0.367,0.294,0.396l1.286,0.201l-0.593,0.43   c-0.177-0.049-0.376-0.031-0.539,0.086c-0.278,0.209-0.339,0.594-0.132,0.877c0.205,0.271,0.592,0.332,0.868,0.129   c0.166-0.117,0.243-0.299,0.246-0.492l0.605-0.441l-0.202,1.307c-0.029,0.189,0.103,0.371,0.292,0.4   c0.194,0.027,0.372-0.105,0.404-0.299l0.294-1.943c0.006-0.016,0-0.031,0-0.043l1.897-1.393c0.14,0.113,0.304,0.191,0.486,0.244   v2.369c-0.008,0.008-0.017,0.008-0.021,0.016l-1.396,1.396c-0.138,0.137-0.138,0.355,0,0.49c0.136,0.141,0.359,0.141,0.495,0   l0.922-0.916v0.732c-0.149,0.117-0.252,0.283-0.252,0.486c0,0.344,0.28,0.623,0.624,0.623c0.344,0,0.624-0.279,0.624-0.623   c0-0.203-0.105-0.369-0.253-0.486v-0.748l0.936,0.932c0.135,0.141,0.357,0.141,0.494,0c0.138-0.135,0.138-0.354,0-0.49   l-1.392-1.396c-0.011-0.008-0.024-0.016-0.038-0.023v-2.354c0.182-0.053,0.346-0.135,0.49-0.244l1.905,1.4   c0,0.012-0.003,0.016-0.003,0.027l0.299,1.947c0.033,0.189,0.208,0.322,0.399,0.295c0.195-0.029,0.325-0.211,0.295-0.4   l-0.197-1.283l0.593,0.438c0,0.182,0.08,0.367,0.242,0.484c0.278,0.207,0.669,0.143,0.871-0.129   c0.205-0.283,0.146-0.668-0.132-0.877c-0.162-0.121-0.36-0.135-0.54-0.082l-0.601-0.443l1.306-0.203   c0.188-0.029,0.321-0.203,0.292-0.396C24.092,80.271,23.913,80.141,23.721,80.17z"/><polygon points="39.768,56.174 28.731,67.123 42.591,76.055 28.616,92.094 48.932,76.217 41.452,67.99 66.818,56.174  "/><path d="M75.645,63.176c-0.193-2.074-2.354-3.445-2.896-6.529h-0.004c-0.545,3.084-2.707,4.455-2.9,6.529   c-0.174,1.918,1.262,3.266,2.896,3.264C74.375,66.432,75.822,65.094,75.645,63.176z"/><path d="M80.094,79.129c-0.193-2.078-2.357-3.445-2.9-6.531h-0.004c-0.545,3.086-2.705,4.453-2.896,6.531   c-0.178,1.918,1.262,3.266,2.893,3.262C78.824,82.387,80.271,81.047,80.094,79.129z"/><path d="M69.176,73.867c-0.213-2.301-2.613-3.818-3.219-7.252h-0.004c-0.604,3.434-3.002,4.951-3.213,7.252   c-0.201,2.131,1.396,3.633,3.213,3.625C67.766,77.484,69.371,75.998,69.176,73.867z"/><path d="M86.822,66.801c-0.232-2.557-2.9-4.24-3.572-8.039h-0.004c-0.668,3.799-3.334,5.482-3.568,8.039   c-0.219,2.361,1.553,4.025,3.568,4.02C85.26,70.812,87.039,69.162,86.822,66.801z"/><path d="M22.249,58.707l-3.118,0.48c-0.026,0-0.042,0.012-0.066,0.02l-3.037-2.229c0.098-0.246,0.157-0.518,0.157-0.805   c0-0.279-0.059-0.551-0.157-0.805l1.831-1.344c-0.455-0.158-0.899-0.326-1.322-0.506l-1.223,0.895   c-0.231-0.174-0.495-0.311-0.784-0.385v-1.557c-0.417-0.258-0.814-0.522-1.19-0.806v2.37c-0.29,0.078-0.549,0.215-0.775,0.396   l-3.04-2.23c0-0.03,0.006-0.049,0.001-0.071l-0.475-3.124c-0.048-0.31-0.334-0.517-0.642-0.472   c-0.307,0.045-0.517,0.332-0.47,0.642l0.321,2.089l-0.967-0.706c-0.005-0.303-0.13-0.593-0.391-0.786   C6.461,49.45,5.837,49.548,5.51,49.99c-0.329,0.445-0.231,1.068,0.212,1.394c0.26,0.192,0.582,0.227,0.866,0.14l0.948,0.694   l-2.062,0.313c-0.304,0.047-0.516,0.334-0.469,0.643c0.048,0.307,0.335,0.516,0.639,0.469l3.124-0.477   c0.015,0,0.027-0.014,0.041-0.018l3.05,2.248c-0.09,0.24-0.146,0.502-0.146,0.777s0.056,0.537,0.146,0.781l-3.05,2.244   c-0.013-0.004-0.025-0.012-0.041-0.012l-3.124-0.48c-0.304-0.053-0.591,0.168-0.639,0.473c-0.047,0.307,0.166,0.594,0.469,0.635   l2.062,0.316l-0.948,0.695c-0.284-0.078-0.606-0.049-0.866,0.141c-0.444,0.324-0.541,0.951-0.212,1.396   c0.327,0.441,0.951,0.537,1.394,0.211c0.261-0.188,0.386-0.482,0.391-0.785l0.967-0.709l-0.321,2.092   c-0.046,0.307,0.164,0.594,0.47,0.643c0.308,0.041,0.594-0.17,0.642-0.473l0.475-3.119c0.005-0.027-0.001-0.049-0.001-0.072   l3.038-2.232c0.226,0.182,0.487,0.318,0.777,0.396v3.793c-0.011,0.012-0.023,0.012-0.034,0.021l-2.234,2.236   c-0.221,0.219-0.221,0.578,0,0.789c0.217,0.223,0.573,0.223,0.794,0l1.474-1.469v1.174c-0.238,0.182-0.402,0.457-0.402,0.779   c0,0.555,0.447,0.996,1,0.996c0.55,0,0.995-0.441,0.995-0.996c0-0.322-0.161-0.598-0.403-0.779v-1.197l1.5,1.492   c0.214,0.223,0.573,0.223,0.792,0c0.221-0.211,0.221-0.57,0-0.789l-2.231-2.236c-0.017-0.014-0.039-0.021-0.06-0.033v-3.773   c0.289-0.078,0.552-0.211,0.784-0.389l3.056,2.248c0,0.014-0.005,0.021-0.005,0.041l0.479,3.119   c0.048,0.303,0.333,0.514,0.637,0.473c0.312-0.049,0.521-0.336,0.473-0.643l-0.315-2.059l0.948,0.699   c0.002,0.295,0.126,0.592,0.387,0.781c0.446,0.328,1.071,0.23,1.397-0.207c0.327-0.453,0.231-1.068-0.212-1.402   c-0.26-0.195-0.58-0.223-0.866-0.135l-0.966-0.711l2.091-0.324c0.306-0.041,0.519-0.328,0.471-0.635   C22.845,58.875,22.558,58.658,22.249,58.707z"/><path d="M77.83,38.328c-0.15-2.174-1.672-7.008-6.684-10.163c-5.615-3.528-10.838-3.669-15.82-2.083   c-2.531-6.481-9.521-12.598-19.856-11.251c-10.045,1.307-15.556,9.93-15.556,16.875c-5.957,1.658-9.329,5.595-9.329,10.904   c0,5.393,5.289,10.567,15.264,10.534c9.972-0.027,42.801,0.082,52.85,0c8.74-0.072,11.262-4.888,9.748-9.424   C87.049,39.525,82.367,37.268,77.83,38.328z"/><path d="M94.75,25.438c-0.842-2.528-3.664-3.889-6.4-3.25c-0.092-1.311-1.01-4.225-4.031-6.128   c-3.387-2.128-6.533-2.213-9.539-1.255c-1.525-3.909-5.744-7.597-11.975-6.785c-5.424,0.705-8.631,4.943-9.246,8.831   c1.668,1.593,3.008,3.375,3.996,5.16c1.453-0.299,2.893-0.451,4.297-0.451c3.918,0,7.777,1.176,11.479,3.502   c2.764,1.739,4.645,3.938,5.898,6.08c4.061,0,7.625-0.004,9.645-0.019C94.146,31.079,95.664,28.175,94.75,25.438z"/></g><text x="0" y="115" fill="#000000" font-size="5px" font-weight="bold" font-family="'Helvetica Neue', Helvetica, Arial-Unicode, Arial, Sans-serif">Created by Aaron K. Kim</text><text x="0" y="120" fill="#000000" font-size="5px" font-weight="bold" font-family="'Helvetica Neue', Helvetica, Arial-Unicode, Arial, Sans-serif">from the Noun Project</text></svg>