<svg xmlns="http://www.w3.org/2000/svg" xmlns:xlink="http://www.w3.org/1999/xlink" version="1.1" x="0px" y="0px" viewBox="0 0 100 125" enable-background="new 0 0 100 100" xml:space="preserve"><g><path d="M55.383,24.197c0,2.973-2.412,5.379-5.383,5.379l0,0c-2.971,0-5.38-2.407-5.38-5.379V10.5c0-2.971,2.409-5.379,5.38-5.379   l0,0c2.971,0,5.383,2.409,5.383,5.379V24.197z"/><path d="M35.476,27.986c2.1,2.102,2.098,5.507,0,7.603l0,0c-2.102,2.104-5.507,2.104-7.609,0l-9.683-9.681   c-2.102-2.102-2.102-5.505,0-7.609l0,0c2.1-2.098,5.503-2.102,7.605,0L35.476,27.986z"/><path d="M24.077,44.739c2.973,0,5.379,2.407,5.379,5.38l0,0c0,2.967-2.407,5.377-5.379,5.377H10.38C7.407,55.496,5,53.086,5,50.115   l0,0c0.003-2.969,2.407-5.376,5.379-5.376H24.077z"/><path d="M27.867,64.641c2.102-2.102,5.503-2.102,7.609,0.004l0,0c2.098,2.098,2.098,5.505-0.006,7.606l-9.681,9.686   c-2.102,2.098-5.511,2.098-7.613,0l0,0c-2.094-2.102-2.098-5.505,0.004-7.606L27.867,64.641z"/><path d="M44.62,76.037c0-2.971,2.407-5.373,5.38-5.373l0,0c2.965-0.004,5.383,2.406,5.383,5.377l-0.008,13.695   c0.008,2.971-2.41,5.384-5.383,5.384l0,0c-2.965-0.008-5.372-2.409-5.372-5.384V76.037z"/><path d="M64.523,72.251c-2.105-2.102-2.098-5.505,0.004-7.61l0,0c2.098-2.098,5.505-2.102,7.606,0.004l9.685,9.686   c2.098,2.098,2.098,5.513,0,7.614l0,0c-2.102,2.09-5.504,2.09-7.606-0.008L64.523,72.251z"/><path d="M75.924,55.5c-2.971,0-5.382-2.414-5.382-5.385l0,0c0-2.961,2.411-5.376,5.382-5.376h13.695   c2.967,0,5.381,2.415,5.381,5.384l0,0c-0.008,2.967-2.406,5.373-5.381,5.373L75.924,55.5z"/><path d="M72.134,35.589c-2.102,2.104-5.509,2.104-7.61,0l0,0c-2.098-2.092-2.098-5.505,0.004-7.609l9.685-9.681   c2.095-2.098,5.513-2.098,7.614,0.004l0,0c2.09,2.102,2.09,5.5-0.008,7.605L72.134,35.589z"/></g><circle cx="50.528" cy="50.55" r="10.745"/><text x="0" y="115" fill="#000000" font-size="5px" font-weight="bold" font-family="'Helvetica Neue', Helvetica, Arial-Unicode, Arial, Sans-serif">Created by Aaron K. Kim</text><text x="0" y="120" fill="#000000" font-size="5px" font-weight="bold" font-family="'Helvetica Neue', Helvetica, Arial-Unicode, Arial, Sans-serif">from the Noun Project</text></svg>